<?xml version="1.0" encoding="UTF-8" standalone="no"?>
<!-- Created with Inkscape (http://www.inkscape.org/) -->

<svg
   xmlns:dc="http://purl.org/dc/elements/1.1/"
   xmlns:cc="http://creativecommons.org/ns#"
   xmlns:rdf="http://www.w3.org/1999/02/22-rdf-syntax-ns#"
   xmlns:svg="http://www.w3.org/2000/svg"
   xmlns="http://www.w3.org/2000/svg"
   xmlns:sodipodi="http://sodipodi.sourceforge.net/DTD/sodipodi-0.dtd"
   xmlns:inkscape="http://www.inkscape.org/namespaces/inkscape"
   width="48"
   height="48"
   viewBox="0 0 48 48"
   version="1.1"
   id="svg8"
   sodipodi:docname="logo-v1-2-1.svg"
   inkscape:version="0.92.1 r15371">
  <defs
     id="defs2" />
  <sodipodi:namedview
     id="base"
     pagecolor="#ffffff"
     bordercolor="#666666"
     borderopacity="1.0"
     inkscape:pageopacity="0.0"
     inkscape:pageshadow="2"
     inkscape:zoom="10.520833"
     inkscape:cx="24"
     inkscape:cy="24"
     inkscape:document-units="px"
     inkscape:current-layer="layer1"
     showgrid="false"
     units="px"
     inkscape:pagecheckerboard="true"
     inkscape:showpageshadow="false"
     borderlayer="false"
     inkscape:window-width="1366"
     inkscape:window-height="702"
     inkscape:window-x="0"
     inkscape:window-y="27"
     inkscape:window-maximized="1"
     showguides="true"
     inkscape:guide-bbox="true"
     showborder="true">
    <inkscape:grid
       type="xygrid"
       id="grid4485"
       empspacing="1"
       originx="0" />
  </sodipodi:namedview>
  <metadata
     id="metadata5">
    <rdf:RDF>
      <cc:Work
         rdf:about="">
        <dc:format>image/svg+xml</dc:format>
        <dc:type
           rdf:resource="http://purl.org/dc/dcmitype/StillImage" />
        <dc:title></dc:title>
      </cc:Work>
    </rdf:RDF>
  </metadata>
  <g
     inkscape:label="Layer 1"
     inkscape:groupmode="layer"
     id="layer1"
     transform="translate(0,-284.30001)">
    <path
       style="opacity:0.5;fill:#000000;fill-opacity:1;stroke:none;stroke-width:4.91344595;stroke-linejoin:miter;stroke-miterlimit:4;stroke-dasharray:none;stroke-opacity:1"
       d="M 24,0 17.890625,3.6523438 V 6 9.7050781 11.732422 17.888672 20 28 30.111328 L 16.144531,29 V 19 12.800781 L 10.908203,16 v 16 l 12.21875,7.466797 V 34 33.445312 31.427734 16.572266 14.554688 8.5332031 6.5292969 L 24,6 38.835938,15 v 0.01172 l 5.236328,3.179687 V 12 Z"
       transform="translate(0,284.30001)"
       id="path7457" />
    <path
       style="opacity:0.5;fill:#000000;fill-opacity:1;stroke:none;stroke-width:4.91344595;stroke-linejoin:miter;stroke-miterlimit:4;stroke-dasharray:none;stroke-opacity:1"
       d="M 16.144531,4.6953125 3.9277344,12 v 15.757812 l 5.2363281,3.19336 V 15 l 6.9804685,-4.234375 z"
       transform="translate(0,284.30001)"
       id="path7455" />
    <path
       style="opacity:0.5;fill:#000000;fill-opacity:1;stroke:none;stroke-width:4.91344595;stroke-linejoin:miter;stroke-miterlimit:4;stroke-dasharray:none;stroke-opacity:1"
       d="M 24.873047,8.5332031 V 14 v 0.554688 2.017578 14.855468 2.017578 6.021485 2.003906 L 24,42 9.1640625,33 v -0.0098 L 3.9277344,29.810547 V 36 L 24,48 30.109375,44.347656 V 42 38.294922 36.267578 30.111328 28 20 17.888672 L 31.855469,19 v 10 6.199219 L 37.091797,32 V 16 Z"
       transform="translate(0,284.30001)"
       id="path7453" />
    <path
       style="opacity:0.5;fill:#000000;fill-opacity:1;stroke:none;stroke-width:4.91344595;stroke-linejoin:miter;stroke-miterlimit:4;stroke-dasharray:none;stroke-opacity:1"
       d="M 38.835938,17.048828 V 33 l -6.980469,4.234375 v 6.070313 L 44.072266,36 V 20.242188 Z"
       transform="translate(0,284.30001)"
       id="path7447" />
  </g>
</svg>
